<svg xmlns="http://www.w3.org/2000/svg" data-name="Layer 1" viewBox="0 0 100 125" x="0px" y="0px"><title></title><g data-name="Group"><path data-name="Compound Path" d="M81.5,24.6H62.7V20.8a7,7,0,0,0-7-7H44.3a7,7,0,0,0-7,7v3.8H18.5a3,3,0,0,0,0,6h6.1V75.2a11,11,0,0,0,11,11H64.4a11,11,0,0,0,11-11V30.6h6.1a3,3,0,0,0,0-6ZM43.3,20.8a1,1,0,0,1,1-1H55.7a1,1,0,0,1,1,1v3.8H43.3Zm26,54.5a5,5,0,0,1-5,5H35.6a5,5,0,0,1-5-5V30.6H69.4Z"/><path data-name="Path" d="M57.5,73a3,3,0,0,0,3-3V40.1a3,3,0,1,0-6,0V70A3,3,0,0,0,57.5,73Z"/><path data-name="Path" d="M42.5,73a3,3,0,0,0,3-3V40.1a3,3,0,1,0-6,0V70A3,3,0,0,0,42.5,73Z"/></g><text x="0" y="115" fill="#000000" font-size="5px" font-weight="bold" font-family="'Helvetica Neue', Helvetica, Arial-Unicode, Arial, Sans-serif"></text><text x="0" y="120" fill="#000000" font-size="5px" font-weight="bold" font-family="'Helvetica Neue', Helvetica, Arial-Unicode, Arial, Sans-serif"></text></svg>